control3min_grf.mot
version=1
nRows=10
nColumns 19
inDegrees=yes
endheader
time	1_ground_force_vx	1_ground_force_vy	1_ground_force_vz	1_ground_force_px	1_ground_force_py	1_ground_force_pz	1_ground_torque_x	1_ground_torque_y	1_ground_torque_z	2_ground_force_vx	2_ground_force_vy	2_ground_force_vz	2_ground_force_px	2_ground_force_py	2_ground_force_pz	2_ground_torque_x	2_ground_torque_y	2_ground_torque_z
            3.751500	          -15.418549	          880.256276	          -85.379598	           -0.152107	            0.006254	           -0.409181	           -0.102681	            5.862130	           -0.568592	           -9.413719	          709.043202	           78.604383	           -0.160285	            0.005909	           -0.698778	            0.042345	           -3.189460	           -0.353583
            3.752000	          -14.682508	          872.503059	          -84.956104	           -0.151788	            0.006255	           -0.409423	           -0.097217	            5.777078	           -0.562517	           -8.408308	          702.972819	           77.737576	           -0.159982	            0.005908	           -0.698366	            0.038467	           -3.215981	           -0.355636
            3.752500	          -14.588696	          867.093079	          -84.520954	           -0.151811	            0.006255	           -0.409302	           -0.097819	            5.813956	           -0.566722	           -7.457518	          699.110404	           77.347954	           -0.160041	            0.005909	           -0.698617	            0.034293	           -3.214864	           -0.355685
            3.753000	          -14.218311	          860.238987	          -83.588266	           -0.151446	            0.006255	           -0.409343	           -0.093666	            5.667012	           -0.550656	           -7.061574	          693.220015	           77.045200	           -0.159840	            0.005909	           -0.698420	            0.032251	           -3.165999	           -0.351872
            3.753500	          -13.617558	          853.923420	          -82.149410	           -0.151366	            0.006255	           -0.409415	           -0.090534	            5.677189	           -0.546159	           -6.764106	          688.619338	           76.465517	           -0.159702	            0.005910	           -0.698528	            0.030013	           -3.055513	           -0.339290
            3.754000	          -12.971366	          846.707609	          -80.943808	           -0.151073	            0.006256	           -0.409596	           -0.085382	            5.573297	           -0.532798	           -6.748498	          684.023839	           74.149606	           -0.159445	            0.005910	           -0.698387	            0.030205	           -3.061549	           -0.331878
            3.754500	          -12.326252	          841.656165	          -80.004073	           -0.151038	            0.006255	           -0.409351	           -0.079225	            5.409629	           -0.514215	           -6.635038	          678.322494	           72.205153	           -0.159357	            0.005910	           -0.698136	            0.028967	           -2.961370	           -0.315228
            3.755000	          -11.222867	          834.983297	          -79.255856	           -0.150824	            0.006256	           -0.409545	           -0.072354	            5.383128	           -0.510962	           -6.337749	          673.544478	           69.700753	           -0.159236	            0.005910	           -0.698150	            0.028342	           -3.012024	           -0.311695
            3.755500	          -10.716451	          828.852531	          -78.870689	           -0.150717	            0.006256	           -0.409551	           -0.068541	            5.301256	           -0.504449	           -5.708837	          667.844157	           67.990713	           -0.158996	            0.005910	           -0.697838	            0.026798	           -3.135002	           -0.319163
            3.756000	          -10.255911	          822.902053	          -78.484621	           -0.150375	            0.006256	           -0.409455	           -0.065311	            5.240370	           -0.499802	           -4.713479	          664.536737	           66.946050	           -0.159044	            0.005910	           -0.697958	            0.023074	           -3.253126	           -0.327723
